<svg width="20" height="20" viewBox="0 0 20 20" fill="none" xmlns="http://www.w3.org/2000/svg">
<path fill-rule="evenodd" clip-rule="evenodd" d="M9.99999 20C12.6522 20 15.1957 18.9464 17.0711 17.0711C18.9464 15.1957 20 12.6522 20 9.99999C20 7.34783 18.9464 4.80429 17.0711 2.92893C15.1957 1.05357 12.6522 0 9.99999 0C7.34783 0 4.80429 1.05357 2.92893 2.92893C1.05357 4.80429 0 7.34783 0 9.99999C0 12.6522 1.05357 15.1957 2.92893 17.0711C4.80429 18.9464 7.34783 20 9.99999 20ZM6.25 8.75H3.75V11.25H6.25V8.75ZM16.25 8.75H13.75V11.25H16.25V8.75ZM8.75 8.75H11.25V11.25H8.75V8.75Z" fill="#808080"/>
</svg>
